<svg width="998" height="267" viewBox="0 0 998 267" fill="none" xmlns="http://www.w3.org/2000/svg">
<path d="M873.252 0.122818C921.97 0.122818 998.002 34.1295 998.002 34.1295V266.399H0.000793457V34.0078C0.000793457 34.0078 76.033 68.1362 124.751 68.1362C173.469 68.1362 249.501 34.1295 249.501 34.1295C249.501 34.1295 325.533 0 374.251 0C422.969 0 499.001 34.0067 499.001 34.0067C499.001 34.0067 575.034 68.1362 623.752 68.1362C672.469 68.1362 748.502 34.1295 748.502 34.1295C748.502 34.1295 824.534 0.122818 873.252 0.122818Z" fill="url(#paint0_linear_0_1)"/>
<mask id="mask0_0_1" style="mask-type:alpha" maskUnits="userSpaceOnUse" x="0" y="0" width="999" height="198">
<path d="M873.249 0.122818C921.967 0.122818 997.999 34.1295 997.999 34.1295L998.002 197.314H0.00115967L0 34.0078C0 34.0078 76.0322 68.1362 124.75 68.1362C173.468 68.1362 249.5 34.1295 249.5 34.1295C249.5 34.1295 325.532 0 374.25 0C422.968 0 498.999 34.0067 498.999 34.0067C498.999 34.0067 575.032 68.1362 623.749 68.1362C672.467 68.1362 748.5 34.1295 748.5 34.1295C748.5 34.1295 824.531 0.122818 873.249 0.122818Z" fill="url(#paint1_linear_0_1)"/>
</mask>
<g mask="url(#mask0_0_1)">
<g filter="url(#filter0_f_0_1)">
<path d="M1004.96 72.5651C1004.96 72.5651 928.929 38.5584 880.211 38.5584C831.493 38.5584 755.461 72.5651 755.461 72.5651C755.461 72.5651 679.428 106.572 630.711 106.572C581.993 106.572 505.96 72.4423 505.96 72.4423C505.96 72.4423 429.928 38.4355 381.21 38.4355C332.492 38.4355 256.46 72.5651 256.46 72.5651C256.46 72.5651 180.428 106.572 131.71 106.572C82.992 106.572 6.95979 72.4434 6.95979 72.4434" stroke="#4AF6FF" stroke-width="54.34"/>
</g>
</g>
<defs>
<filter id="filter0_f_0_1" x="-53.8614" y="-38.4356" width="1119.61" height="221.879" filterUnits="userSpaceOnUse" color-interpolation-filters="sRGB">
<feFlood flood-opacity="0" result="BackgroundImageFix"/>
<feBlend mode="normal" in="SourceGraphic" in2="BackgroundImageFix" result="shape"/>
<feGaussianBlur stdDeviation="24.8506" result="effect1_foregroundBlur_0_1"/>
</filter>
<linearGradient id="paint0_linear_0_1" x1="532.633" y1="72.3981" x2="536.609" y2="300.03" gradientUnits="userSpaceOnUse">
<stop offset="0.0288462" stop-color="#5EA4FF"/>
<stop offset="0.658654" stop-color="#486489" stop-opacity="0"/>
</linearGradient>
<linearGradient id="paint1_linear_0_1" x1="532.633" y1="72.3982" x2="532.633" y2="434.389" gradientUnits="userSpaceOnUse">
<stop offset="0.0288462" stop-color="#5EA4FF"/>
<stop offset="0.658654" stop-color="#486489" stop-opacity="0"/>
</linearGradient>
</defs>
</svg>
